<svg xmlns="http://www.w3.org/2000/svg" xmlns:xlink="http://www.w3.org/1999/xlink" fill="none" version="1.1" width="30" height="30" viewBox="0 0 30 30"><defs><clipPath id="master_svg0_1_1"><rect x="0" y="0" width="30" height="30" rx="0"/></clipPath></defs><g clip-path="url(#master_svg0_1_1)"><g><path d="M13.414,15.672Q13.414,12.594,13.144,11.163Q12.874,9.732,12.118,9.462L12.19,9.21Q12.748,9.282,14.008,9.282Q15.268,9.282,16.33,9.138L16.384,9.552Q15.106,9.858,14.602,9.911999999999999Q14.368,11.676,14.368,14.61L14.368,15.672Q14.368,19.038,14.602,20.37Q15.52,20.478,16.33,20.694L16.258,21.144Q15.304,21,14.341,21Q13.378,21,12.784,21.054Q12.784,20.46,11.614,18.408Q10.443999999999999,16.356,7.366,11.55L7.2940000000000005,11.586L7.2940000000000005,14.61Q7.2940000000000005,19.02,7.96,20.37Q8.95,20.46,9.922,20.712L9.886,21.144Q8.554,21,6.997,21Q5.4399999999999995,21,4.486,21.144L4.414,20.694Q5.224,20.442,6.1419999999999995,20.316Q6.34,18.84,6.34,15.672L6.34,14.61Q6.34,12.072,6.1240000000000006,10.272Q4,10.272,3.406,10.847999999999999Q3.2800000000000002,11.1,3.2800000000000002,11.64Q3.2800000000000002,12.18,3.46,12.378L3.442,12.504Q2.992,12.774,2.542,13.26Q2.326,13.242,2.191,13.08Q2.056,12.918,2.056,12.702Q2.056,11.82,3.118,10.596Q4.18,9.372,5.098,9.048Q5.314,9.065999999999999,6.313000000000001,9.174Q7.311999999999999,9.282,7.96,9.282Q8.608,9.282,9.166,9.174L9.238,9.623999999999999Q8.5,9.93,8.5,10.218Q8.59,10.704,9.526,12.261Q10.462,13.818,13.342,18.3L13.414,18.264L13.414,15.672ZM18.832,20.316Q19.048000000000002,18.84,19.048000000000002,15.51Q19.048000000000002,12.18,18.868000000000002,10.236Q16.906,10.272,16.348,10.812000000000001Q16.222,11.064,16.222,11.604Q16.222,12.144,16.402,12.342L16.384,12.468Q15.934,12.738,15.484,13.224Q15.268,13.206,15.133,13.044Q14.998,12.882,14.998,12.666Q14.998,11.838000000000001,15.943,10.704Q16.887999999999998,9.57,17.752000000000002,9.138Q19.282,9.282,22.54,9.282Q24.268,9.282,25.141,9.911999999999999Q26.014,10.542,26.014,12.126Q26.014,13.71,24.7,14.7Q23.386,15.69,21.64,15.69Q21.37,15.69,21.244,15.672L21.316,15.096L21.532,15.096Q22.882,15.096,23.602,14.412Q24.322,13.728,24.322,12.441Q24.322,11.154,23.719,10.668Q23.116,10.182,21.802,10.182Q21.118,10.182,20.578,10.236Q20.434,11.838000000000001,20.434,15.303Q20.434,18.768,20.65,20.37Q21.604,20.46,22.63,20.712L22.576,21.144Q21.244,21,19.686999999999998,21Q18.130000000000003,21,17.176000000000002,21.144L17.104,20.694Q17.914,20.442,18.832,20.316Z" fill="#12AA40" fill-opacity="1"/></g></g></svg>